<?xml version="1.0" encoding="utf-8"?>
<!-- Generator: Adobe Illustrator 24.3.0, SVG Export Plug-In . SVG Version: 6.00 Build 0)  -->
<svg version="1.1" id="Layer_1" xmlns="http://www.w3.org/2000/svg" xmlns:xlink="http://www.w3.org/1999/xlink" x="0px" y="0px"
	 viewBox="0 0 1000 1000" style="enable-background:new 0 0 1000 1000;" xml:space="preserve">
<style type="text/css">
	.st0{fill:#FFFFFF;}
</style>
<rect x="-64.5" y="-11.9" width="1129.2" height="1023.6"/>
<rect x="478.5" y="255.5" class="st0" width="34.8" height="511.2"/>
<rect x="390.1" y="469" transform="matrix(0.7071 0.7071 -0.7071 0.7071 543.2698 -112.5396)" class="st0" width="34.8" height="261"/>
<rect x="478.5" y="255.4" transform="matrix(-1.836970e-16 1 -1 -1.836970e-16 1006.997 15.0704)" class="st0" width="34.8" height="511.2"/>
<rect x="478.5" y="255.4" transform="matrix(-0.7071 0.7071 -0.7071 -0.7071 1208.0177 521.6901)" class="st0" width="34.8" height="511.2"/>
<circle cx="496" cy="511.2" r="18.7"/>
<rect x="505.7" y="460.8" transform="matrix(0.7071 0.7071 -0.7071 0.7071 500.3552 -216.1445)" width="10.7" height="70.2"/>
<polygon class="st0" points="528,367.1 680.6,296.3 704.8,318.1 654,480.2 630.2,458.3 670.6,334.3 552.3,388.2 "/>
</svg>
